# xmcd
#
# Track frame offsets:
#	150
#	27353
#	45236
#	67157
#	93711
#	108873
#	127520
#	147323
#	161425
#	174488
#	202790
#	223373
#	241515
#	258557
#	268619
#
# Disc length: 3621 seconds
#
# Revision: 0
# Processed by: cddbd v1.5.1PL0 Copyright (c) Steve Scherf et al.
# Submitted via: dBpowerAMP V4.0
#
DISCID=cc0e230f
DTITLE=Bobbe Brown and Blue - Bobbe Brown and Blue
DYEAR=2003
DGENRE=
TTITLE0=You and Diablo
TTITLE1=Wasted Away Again
TTITLE2=Leroy's Blues
TTITLE3=12 Bar Blues
TTITLE4=Juicy Tomatoes
TTITLE5=Butterflies Die
TTITLE6=Still She Came
TTITLE7=It's Not Me
TTITLE8=Cayo Hueso
TTITLE9=Short Story Long
TTITLE10=Simple Life
TTITLE11=Over You
TTITLE12=Not Coming Back
TTITLE13=Out of Bait
TTITLE14=Kitty
EXTD=
EXTT0=
EXTT1=
EXTT2=
EXTT3=
EXTT4=
EXTT5=
EXTT6=
EXTT7=
EXTT8=
EXTT9=
EXTT10=
EXTT11=
EXTT12=
EXTT13=
EXTT14=
PLAYORDER=
